<?xml version="1.0" encoding="UTF-8" standalone="no"?>
<!-- Uploaded to: SVG Repo, www.svgrepo.com, Generator: SVG Repo Mixer Tools -->

<svg
   width="128"
   height="128"
   version="1.1"
   id="svg1"
   xmlns="http://www.w3.org/2000/svg"
   xmlns:svg="http://www.w3.org/2000/svg"
   xmlns:rdf="http://www.w3.org/1999/02/22-rdf-syntax-ns#"
   xmlns:cc="http://creativecommons.org/ns#"
   xmlns:dc="http://purl.org/dc/elements/1.1/">
  <path
     d="M 15.15625,16.84375 C 11.062788,16.84375 7.75,20.156538 7.75,24.25 V 37.375 48.59375 89.125 c 0,4.093455 3.312788,7.375 7.40625,7.375 h 43 v 4.65625 h -5.9375 c -1.43851,0 -2.59375,1.15524 -2.59375,2.59375 v 4.8125 c 0,1.43851 1.15524,2.59375 2.59375,2.59375 h 23.5625 c 1.43851,0 2.59375,-1.15524 2.59375,-2.59375 V 103.75 c 0,-1.43851 -1.15524,-2.59375 -2.59375,-2.59375 h -5.9375 V 96.5 h 43 c 4.09346,0 7.40625,-3.281545 7.40625,-7.375 v -51.75 c 0,-4.093462 -3.31287,-7.34985 -7.40625,-7.375 h -59.4375 v -5.75 c 0,-4.093462 -3.281538,-7.40625 -7.375,-7.40625 z M 7.75,102.90625 v 6.5 h 39.59375 c -0.0011,-0.0436 0,-0.0811 0,-0.125 v -5.4375 c 0,-0.31974 0.03785,-0.63441 0.09375,-0.9375 z m 72.8125,0 c 0.0559,0.30309 0.09375,0.61776 0.09375,0.9375 v 5.4375 c 0,0.0439 0.0011,0.0814 0,0.125 H 120.25 v -6.5 z"
     id="path1" />
  <text
     xml:space="preserve"
     style="font-size:25.3625px;fill:#000000;stroke-width:2.11354"
     x="31.267437"
     y="70.006851"
     id="text1"
     transform="scale(0.96391051,1.0374407)"><tspan
       id="tspan1"
       x="31.267437"
       y="70.006851"
       style="font-weight:bold;fill:#fefefe;fill-opacity:1;stroke-width:2.11354">SFTP</tspan></text>
</svg>
