<svg fill="none" height="24" viewBox="0 0 24 24" width="24" xmlns="http://www.w3.org/2000/svg">
    <g fill="#292d32">
        <path
            d="m9.00945 21.2502c-.19 0-.38-.07-.53-.22l-5.01-5.01c-.29-.29-.29-.77 0-1.06s.77-.29 1.06 0l5.01 5.01c.29.29.29.77 0 1.06-.15.14-.34.22-.53.22z" />
        <path d="m9.00977 21.25c-.41 0-.75-.34-.75-.75v-17c0-.41.34-.75.75-.75s.75.34.75.75v17c0 .41-.34.75-.75.75z" />
        <path
            d="m20.0095 9.25994c-.19 0-.38-.07-.53-.22l-5.01-5.01c-.29-.29-.29-.77 0-1.06s.77-.29 1.06 0l5.01 5.01c.29.29.29.77 0 1.06-.15.15-.34.22-.53.22z" />
        <path d="m14.9902 21.25c-.41 0-.75-.34-.75-.75v-17c0-.41.34-.75.75-.75s.75.34.75.75v17c0 .41-.33.75-.75.75z" />
    </g>
</svg>